<?xml version="1.0" encoding="UTF-8" standalone="no"?><!-- Generator: Gravit.io --><svg xmlns="http://www.w3.org/2000/svg" xmlns:xlink="http://www.w3.org/1999/xlink" style="isolation:isolate" viewBox="0 0 500 500" width="500pt" height="500pt"><linearGradient id="_lgradient_0" x1="0.5141818260240157" y1="0.439575402334442" x2="0.5130967196410368" y2="0.07214006025264785" gradientTransform="matrix(500,0,0,167,0,-9)" gradientUnits="userSpaceOnUse"><stop offset="0%" stop-opacity="1" style="stop-color:rgb(255,122,153)"/><stop offset="97.91666666666666%" stop-opacity="1" style="stop-color:rgb(255,185,202)"/></linearGradient><path d=" M 38.269 31.652 L 151.794 9.856 C 205.995 -0.551 294.005 -0.551 348.206 9.856 L 461.731 31.652 C 482.852 35.708 500 56.461 500 77.968 L 500 119.032 C 500 140.539 482.539 158 461.032 158 L 38.968 158 C 17.461 158 0 140.539 0 119.032 L 0 77.968 C 0 56.461 17.148 35.708 38.269 31.652 Z " fill="url(#_lgradient_0)"/><radialGradient id="_rgradient_0" fx="0.5" fy="0.5" cx="0.5" cy="0.5" r="1" gradientTransform="matrix(500,0,0,500,-538,128)" gradientUnits="userSpaceOnUse"><stop offset="0%" stop-opacity="0" style="stop-color:rgb(255,122,248)"/><stop offset="98.75%" stop-opacity="1" style="stop-color:rgb(255,122,153)"/></radialGradient><circle vector-effect="non-scaling-stroke" cx="-288" cy="378" r="250" fill="url(#_rgradient_0)"/><linearGradient id="_lgradient_1" x1="0.5163636506030709" y1="0.9984239565539611" x2="0.5216969839364037" y2="0.0023640668770502637" gradientTransform="matrix(500,0,0,423,0,77)" gradientUnits="userSpaceOnUse"><stop offset="0.8333333333333334%" stop-opacity="0" style="stop-color:rgb(255,122,153)"/><stop offset="80%" stop-opacity="1" style="stop-color:rgb(255,122,153)"/><stop offset="99.16666666666667%" stop-opacity="1" style="stop-color:rgb(255,122,153)"/></linearGradient><rect x="0" y="77" width="500" height="423" transform="matrix(1,0,0,1,0,0)" fill="url(#_lgradient_1)"/></svg>