<?xml version="1.0" encoding="UTF-8" standalone="no"?><!-- Generator: Gravit.io --><svg xmlns="http://www.w3.org/2000/svg" xmlns:xlink="http://www.w3.org/1999/xlink" style="isolation:isolate" viewBox="0 0 200 200" width="200pt" height="200pt"><g><path d="M 35.174331 24.74 L 164.825669 24.74 C 172.648695 24.74 179 31.091226 179 38.914155 L 179 168.295845 C 179 176.118774 172.648695 182.47 164.825669 182.47 L 35.174331 182.47 C 27.351305 182.47 21 176.118774 21 168.295845 L 21 38.914155 C 21 31.091226 27.351305 24.74 35.174331 24.74 Z" style="stroke:none;fill:#CBEAFF;stroke-miterlimit:10;"/><path d="M 42.036281 51.55 L 157.963719 51.55 C 165.158638 51.55 171 57.39122 171 64.585964 L 171 186.964036 C 171 194.15878 165.158638 200 157.963719 200 L 42.036281 200 C 34.841362 200 29 194.15878 29 186.964036 L 29 64.585964 C 29 57.39122 34.841362 51.55 42.036281 51.55 Z" style="stroke:none;fill:#1F6493;stroke-miterlimit:10;"/><path d="M 27.188488 0 L 46.811512 0 C 50.227032 0 53 2.772901 53 6.188337 L 53 142.261663 C 53 145.677099 50.227032 148.45 46.811512 148.45 L 27.188488 148.45 C 23.772968 148.45 21 145.677099 21 142.261663 L 21 6.188337 C 21 2.772901 23.772968 0 27.188488 0 Z" style="stroke:none;fill:#CBEAFF;stroke-miterlimit:10;"/><path d="M 153.188488 0 L 172.811512 0 C 176.227032 0 179 2.772901 179 6.188337 L 179 142.261663 C 179 145.677099 176.227032 148.45 172.811512 148.45 L 153.188488 148.45 C 149.772968 148.45 147 145.677099 147 142.261663 L 147 6.188337 C 147 2.772901 149.772968 0 153.188488 0 Z" style="stroke:none;fill:#CBEAFF;stroke-miterlimit:10;"/><path d="M 90.188488 0 L 109.811512 0 C 113.227032 0 116 2.772901 116 6.188337 L 116 142.261663 C 116 145.677099 113.227032 148.45 109.811512 148.45 L 90.188488 148.45 C 86.772968 148.45 84 145.677099 84 142.261663 L 84 6.188337 C 84 2.772901 86.772968 0 90.188488 0 Z" style="stroke:none;fill:#CBEAFF;stroke-miterlimit:10;"/><path d="M 35.378947 40.21 L 56.621053 40.21 C 60.14169 40.21 63 43.068241 63 46.588792 L 63 182.281208 C 63 185.801759 60.14169 188.66 56.621053 188.66 L 35.378947 188.66 C 31.85831 188.66 29 185.801759 29 182.281208 L 29 46.588792 C 29 43.068241 31.85831 40.21 35.378947 40.21 Z" style="stroke:none;fill:#1F6493;stroke-miterlimit:10;"/><path d="M 143.378947 40.21 L 164.621053 40.21 C 168.14169 40.21 171 43.068241 171 46.588792 L 171 182.281208 C 171 185.801759 168.14169 188.66 164.621053 188.66 L 143.378947 188.66 C 139.85831 188.66 137 185.801759 137 182.281208 L 137 46.588792 C 137 43.068241 139.85831 40.21 143.378947 40.21 Z" style="stroke:none;fill:#1F6493;stroke-miterlimit:10;"/><path d="M 89.378947 40.21 L 110.621053 40.21 C 114.14169 40.21 117 43.068241 117 46.588792 L 117 182.281208 C 117 185.801759 114.14169 188.66 110.621053 188.66 L 89.378947 188.66 C 85.85831 188.66 83 185.801759 83 182.281208 L 83 46.588792 C 83 43.068241 85.85831 40.21 89.378947 40.21 Z" style="stroke:none;fill:#1F6493;stroke-miterlimit:10;"/></g></svg>