<?xml version="1.0" encoding="UTF-8" standalone="no"?><!-- Generator: Gravit.io --><svg xmlns="http://www.w3.org/2000/svg" xmlns:xlink="http://www.w3.org/1999/xlink" style="isolation:isolate" viewBox="0 0 300 300" width="300pt" height="300pt"><g><path d=" M 400.376 220.446 C 407.623 230.368 412.835 240.53 413.454 241.537 Q 428.722 266.352 416.712 290.387 L 411.35 283.493 C 411.41 283.318 411.48 283.142 411.54 282.974 C 412.18 281.177 412.7 279.366 413.09 277.534 C 413.48 275.751 413.74 273.954 413.88 272.15 C 414.02 270.353 414.04 268.549 413.93 266.752 C 413.83 264.92 413.59 263.095 413.24 261.284 C 412.87 259.396 412.38 257.521 411.76 255.668 C 411.11 253.71 410.33 251.773 409.42 249.863 C 408.44 247.786 407.33 245.736 406.09 243.728 C 405.82 243.265 405.56 242.802 405.31 242.338 C 403.91 239.769 402.46 237.221 400.95 234.694 C 398.67 230.869 396.2 227.099 393.54 223.393 C 392.14 221.449 390.65 219.539 389.09 217.658 C 387.64 215.91 386.08 214.212 384.4 212.562 C 383.04 211.207 381.52 209.93 379.87 208.737 C 379.25 208.294 378.58 207.873 377.89 207.487 C 377.29 207.15 376.65 206.862 375.97 206.617 C 373.97 205.634 371.77 204.876 369.48 204.377 C 367.06 203.865 364.54 203.612 362.01 203.619 L 361 203.626 L 359.99 203.619 C 357.47 203.612 354.96 203.865 352.55 204.37 C 350.23 204.876 348.03 205.634 346.03 206.617 C 345.35 206.862 344.71 207.15 344.11 207.487 C 343.42 207.873 342.75 208.294 342.13 208.737 C 340.48 209.93 338.96 211.207 337.6 212.562 C 335.92 214.212 334.36 215.91 332.91 217.658 C 331.35 219.539 329.86 221.449 328.46 223.393 C 325.8 227.099 323.33 230.862 321.05 234.694 C 319.54 237.221 318.09 239.769 316.69 242.338 C 316.44 242.802 316.18 243.265 315.91 243.728 C 314.67 245.736 313.56 247.786 312.58 249.863 C 311.67 251.773 310.89 253.71 310.24 255.668 C 309.62 257.521 309.13 259.396 308.76 261.284 C 308.41 263.095 308.17 264.92 308.07 266.752 C 307.96 268.549 307.98 270.353 308.12 272.15 C 308.26 273.954 308.52 275.751 308.91 277.534 C 309.3 279.366 309.82 281.177 310.46 282.974 C 310.52 283.142 310.59 283.318 310.65 283.493 Q 306.466 290.154 305.288 290.387 Q 293.278 266.352 308.546 241.537 C 309.165 240.53 314.377 230.368 321.624 220.446 L 321.6 217.138 L 322.633 219.084 C 325.25 215.603 328.105 212.206 331.087 209.303 L 330.593 208.298 C 330.478 208.065 330.383 207.666 330.381 207.409 L 330.329 201.213 L 333.811 206.827 C 336.452 204.602 339.162 202.84 341.869 201.811 C 342.115 201.695 342.362 201.581 342.611 201.47 L 340.925 198.195 C 340.721 197.801 340.553 197.125 340.549 196.688 L 340.46 186.396 L 347.66 197.48 L 349.39 199.186 C 350.917 198.824 352.508 198.541 354.169 198.342 L 352.979 195.241 C 352.795 194.764 352.644 193.965 352.641 193.459 L 352.55 179.511 L 359.75 194.376 L 361 196.029 L 362.25 194.376 L 369.45 179.511 L 369.359 193.459 C 369.356 193.965 369.205 194.764 369.021 195.241 L 367.831 198.342 C 369.492 198.541 371.083 198.824 372.61 199.186 L 374.34 197.48 L 381.54 186.396 L 381.451 196.688 C 381.447 197.125 381.279 197.801 381.075 198.195 L 379.389 201.47 C 379.638 201.581 379.885 201.695 380.131 201.811 C 382.838 202.84 385.548 204.602 388.189 206.827 L 391.671 201.213 L 391.619 207.409 C 391.617 207.666 391.522 208.065 391.407 208.298 L 390.913 209.303 C 393.895 212.206 396.75 215.603 399.367 219.084 L 400.4 217.138 L 400.376 220.446 Z " fill="rgb(255,48,54)"/><g><path d=" M 318.647 238.837 L 314.386 229.863 L 311.148 225.495 L 316.488 221.044 L 319.668 216.437 L 318.59 229.863 L 318.647 238.837 Z " fill="rgb(255,48,54)"/><path d=" M 403.353 238.837 L 407.614 229.863 L 410.852 225.495 L 405.512 221.044 L 402.332 216.437 L 403.41 229.863 L 403.353 238.837 Z " fill="rgb(255,48,54)"/><polygon points="361.000001,191.561569,356.138786,171.168372,365.861217,171.168372" fill="rgb(255,48,54)"/><path d=" M 350.54 196.143 L 345.613 185.765 L 341.869 180.715 L 348.043 175.569 L 351.721 170.241 L 350.474 185.765 L 350.54 196.143 Z " fill="rgb(255,48,54)"/><path d=" M 371.46 196.143 L 376.387 185.765 L 380.131 180.715 L 373.957 175.569 L 370.279 170.241 L 371.526 185.765 L 371.46 196.143 Z " fill="rgb(255,48,54)"/><mask id="_mask_Twh8ru4Dn8u3VV0zXxyNnPQLFGHilXZ4"><path d=" M 361 168.396 C 360.682 168.391 360.364 168.387 360.046 168.387 C 352.945 168.387 346.996 170.219 341.869 173.415 C 325.823 181.475 309.667 223.471 308.546 225.877 Q 293.278 258.647 305.288 290.387 Q 356.18 277.092 361 275.735 Q 365.82 277.092 416.712 290.387 Q 428.722 258.647 413.454 225.877 C 412.333 223.471 396.177 181.475 380.131 173.415 C 375.004 170.219 369.055 168.387 361.954 168.387 C 361.636 168.387 361.318 168.391 361 168.396 Z " fill="white" stroke="none"/></mask><path d=" M 361 168.396 C 360.682 168.391 360.364 168.387 360.046 168.387 C 352.945 168.387 346.996 170.219 341.869 173.415 C 325.823 181.475 309.667 223.471 308.546 225.877 Q 293.278 258.647 305.288 290.387 Q 356.18 277.092 361 275.735 Q 365.82 277.092 416.712 290.387 Q 428.722 258.647 413.454 225.877 C 412.333 223.471 396.177 181.475 380.131 173.415 C 375.004 170.219 369.055 168.387 361.954 168.387 C 361.636 168.387 361.318 168.391 361 168.396 Z " fill="none"/><path d=" M 361 168.396 C 360.682 168.391 360.364 168.387 360.046 168.387 C 352.945 168.387 346.996 170.219 341.869 173.415 C 325.823 181.475 309.667 223.471 308.546 225.877 Q 293.278 258.647 305.288 290.387 Q 356.18 277.092 361 275.735 Q 365.82 277.092 416.712 290.387 Q 428.722 258.647 413.454 225.877 C 412.333 223.471 396.177 181.475 380.131 173.415 C 375.004 170.219 369.055 168.387 361.954 168.387 C 361.636 168.387 361.318 168.391 361 168.396 Z " fill="none" mask="url(#_mask_Twh8ru4Dn8u3VV0zXxyNnPQLFGHilXZ4)" vector-effect="non-scaling-stroke" stroke-width="16" stroke="rgb(255,48,54)" stroke-linejoin="miter" stroke-linecap="square" stroke-miterlimit="3"/><path d=" M 338.671 209.094 L 333.744 198.716 L 330 193.666 L 336.174 188.52 L 339.852 183.192 L 338.605 198.716 L 338.671 209.094 Z " fill="rgb(255,48,54)"/><path d=" M 327.671 216.437 L 322.744 209.842 L 319 206.632 L 325.174 203.362 L 328.852 199.976 L 327.605 209.842 L 327.671 216.437 Z " fill="rgb(255,48,54)"/><path d=" M 383.329 209.094 L 388.256 198.716 L 392 193.666 L 385.826 188.52 L 382.148 183.192 L 383.395 198.716 L 383.329 209.094 Z " fill="rgb(255,48,54)"/><path d=" M 394.329 216.437 L 399.256 209.842 L 403 206.632 L 396.826 203.362 L 393.148 199.976 L 394.395 209.842 L 394.329 216.437 Z " fill="rgb(255,48,54)"/></g></g><path d=" M -21.624 220.446 C -14.377 230.368 -9.165 240.53 -8.546 241.537 Q 6.722 266.352 -5.288 290.387 L -10.65 283.493 C -10.59 283.318 -10.52 283.142 -10.46 282.974 C -9.82 281.177 -9.3 279.366 -8.91 277.534 C -8.52 275.751 -8.26 273.954 -8.12 272.15 C -7.98 270.353 -7.96 268.549 -8.07 266.752 C -8.17 264.92 -8.41 263.095 -8.76 261.284 C -9.13 259.396 -9.62 257.521 -10.24 255.668 C -10.89 253.71 -11.67 251.773 -12.58 249.863 C -13.56 247.786 -14.67 245.736 -15.91 243.728 C -16.18 243.265 -16.44 242.802 -16.69 242.338 C -18.09 239.769 -19.54 237.221 -21.05 234.694 C -23.33 230.869 -25.8 227.099 -28.46 223.393 C -29.86 221.449 -31.35 219.539 -32.91 217.658 C -34.36 215.91 -35.92 214.212 -37.6 212.562 C -38.96 211.207 -40.48 209.93 -42.13 208.737 C -42.75 208.294 -43.42 207.873 -44.11 207.487 C -44.71 207.15 -45.35 206.862 -46.03 206.617 C -48.03 205.634 -50.23 204.876 -52.52 204.377 C -54.94 203.865 -57.46 203.612 -59.99 203.619 L -61 203.626 L -62.01 203.619 C -64.53 203.612 -67.04 203.865 -69.45 204.37 C -71.77 204.876 -73.97 205.634 -75.97 206.617 C -76.65 206.862 -77.29 207.15 -77.89 207.487 C -78.58 207.873 -79.25 208.294 -79.87 208.737 C -81.52 209.93 -83.04 211.207 -84.4 212.562 C -86.08 214.212 -87.64 215.91 -89.09 217.658 C -90.65 219.539 -92.14 221.449 -93.54 223.393 C -96.2 227.099 -98.67 230.862 -100.95 234.694 C -102.46 237.221 -103.91 239.769 -105.31 242.338 C -105.56 242.802 -105.82 243.265 -106.09 243.728 C -107.33 245.736 -108.44 247.786 -109.42 249.863 C -110.33 251.773 -111.11 253.71 -111.76 255.668 C -112.38 257.521 -112.87 259.396 -113.24 261.284 C -113.59 263.095 -113.83 264.92 -113.93 266.752 C -114.04 268.549 -114.02 270.353 -113.88 272.15 C -113.74 273.954 -113.48 275.751 -113.09 277.534 C -112.7 279.366 -112.18 281.177 -111.54 282.974 C -111.48 283.142 -111.41 283.318 -111.35 283.493 Q -115.534 290.154 -116.712 290.387 Q -128.722 266.352 -113.454 241.537 C -112.835 240.53 -107.623 230.368 -100.376 220.446 L -100.4 217.138 L -99.367 219.084 C -96.75 215.603 -93.895 212.206 -90.913 209.303 L -91.407 208.298 C -91.522 208.065 -91.617 207.666 -91.619 207.409 L -91.671 201.213 L -88.189 206.827 C -85.548 204.602 -82.838 202.84 -80.131 201.811 C -79.885 201.695 -79.638 201.581 -79.389 201.47 L -81.075 198.195 C -81.279 197.801 -81.447 197.125 -81.451 196.688 L -81.54 186.396 L -74.34 197.48 L -72.61 199.186 C -71.083 198.824 -69.492 198.541 -67.831 198.342 L -69.021 195.241 C -69.205 194.764 -69.356 193.965 -69.359 193.459 L -69.45 179.511 L -62.25 194.376 L -61 196.029 L -59.75 194.376 L -52.55 179.511 L -52.641 193.459 C -52.644 193.965 -52.795 194.764 -52.979 195.241 L -54.169 198.342 C -52.508 198.541 -50.917 198.824 -49.39 199.186 L -47.66 197.48 L -40.46 186.396 L -40.549 196.688 C -40.553 197.125 -40.721 197.801 -40.924 198.195 L -42.611 201.47 C -42.362 201.581 -42.115 201.695 -41.869 201.811 C -39.162 202.84 -36.452 204.602 -33.811 206.827 L -30.329 201.213 L -30.381 207.409 C -30.383 207.666 -30.478 208.065 -30.593 208.298 L -31.087 209.303 C -28.105 212.206 -25.25 215.603 -22.633 219.084 L -21.6 217.138 L -21.624 220.446 Z " fill="rgb(255,48,54)"/><g><path d=" M 45.854 173.238 L 35.375 151.168 L 27.414 140.429 L 40.544 129.484 L 48.365 118.154 L 45.713 151.168 L 45.854 173.238 Z " fill="rgb(255,48,54)"/><path d=" M 254.146 173.238 L 264.625 151.168 L 272.586 140.429 L 259.456 129.484 L 251.635 118.154 L 254.287 151.168 L 254.146 173.238 Z " fill="rgb(255,48,54)"/><polygon points="150.000021,56.985467,138.046211,6.838256,161.95383,6.838256" fill="rgb(255,48,54)"/><path d=" M 124.279 68.251 L 112.163 42.733 L 102.957 30.315 L 118.14 17.659 L 127.183 4.559 L 124.117 42.733 L 124.279 68.251 Z " fill="rgb(255,48,54)"/><path d=" M 175.721 68.251 L 187.837 42.733 L 197.043 30.315 L 181.86 17.659 L 172.817 4.559 L 175.883 42.733 L 175.721 68.251 Z " fill="rgb(255,48,54)"/><path d=" M 152.347 0 C 169.808 0 184.436 4.503 197.043 12.364 C 236.5 32.184 276.229 135.45 278.986 141.369 Q 316.53 221.951 286.997 300 Q 161.852 267.306 150 263.969 Q 138.148 267.306 13.003 300 Q -16.53 221.951 21.014 141.369 C 23.771 135.45 63.5 32.184 102.957 12.364 C 115.564 4.503 130.192 0 147.653 0 C 148.437 0 149.219 0.008 150 0.021 C 150.781 0.008 151.563 0 152.347 0 Z  M 152.484 19.672 C 158.828 19.648 165.123 20.484 171.246 22.18 C 176.902 23.803 182.385 26.287 187.377 29.533 C 189.049 30.32 190.623 31.279 192.098 32.361 C 193.795 33.615 195.418 34.943 196.943 36.393 C 200.951 40.205 204.639 44.311 207.959 48.689 C 212.041 53.975 215.852 59.459 219.418 65.115 C 223.23 71.164 226.869 77.361 230.312 83.656 C 236.803 95.607 242.852 107.779 248.459 120.197 C 252.148 128.385 255.713 136.623 259.131 144.934 C 259.771 146.484 260.41 148.033 261.098 149.557 C 264.123 156.049 266.852 162.664 269.262 169.402 C 271.475 175.525 273.369 181.746 274.943 188.066 C 276.418 193.992 277.623 199.967 278.508 206.016 C 279.344 211.795 279.91 217.598 280.156 223.426 C 280.426 229.156 280.377 234.885 280.033 240.615 C 279.689 246.369 279.049 252.098 278.139 257.779 C 277.18 263.631 275.926 269.434 274.377 275.164 C 274.279 275.533 274.18 275.902 274.082 276.295 L 196.377 255.934 C 186.566 253.352 176.754 250.771 166.943 248.164 C 163.943 247.352 160.918 246.566 157.918 245.754 C 155.262 245.041 152.631 244.279 150 243.467 C 147.516 244.23 145.033 244.943 142.525 245.631 C 140.311 246.221 138.098 246.812 135.885 247.402 C 126.762 249.836 117.664 252.246 108.541 254.656 L 25.918 276.295 C 25.82 275.902 25.721 275.533 25.623 275.164 C 24.074 269.434 22.82 263.631 21.861 257.779 C 20.951 252.098 20.311 246.369 19.967 240.615 C 19.623 234.885 19.574 229.156 19.844 223.426 C 20.09 217.598 20.656 211.795 21.492 206.016 C 22.377 199.967 23.582 193.992 25.057 188.066 C 26.631 181.746 28.525 175.525 30.738 169.402 C 33.148 162.664 35.877 156.049 38.902 149.557 C 39.59 148.033 40.23 146.484 40.869 144.934 C 44.287 136.623 47.852 128.385 51.541 120.197 C 57.148 107.779 63.197 95.607 69.689 83.656 C 73.131 77.361 76.771 71.164 80.582 65.115 C 84.148 59.459 87.959 53.975 92.041 48.689 C 95.361 44.311 99.049 40.205 103.057 36.393 C 104.582 34.943 106.205 33.615 107.902 32.361 C 109.377 31.279 110.951 30.32 112.623 29.533 C 117.615 26.287 123.098 23.803 128.828 22.156 C 134.902 20.484 141.197 19.648 147.516 19.672 L 150 19.697 L 152.484 19.672 Z " fill-rule="evenodd" fill="rgb(255,48,54)"/><path d=" M 95.093 100.097 L 82.976 74.579 L 73.771 62.161 L 88.953 49.505 L 97.996 36.405 L 94.93 74.579 L 95.093 100.097 Z " fill="rgb(255,48,54)"/><path d=" M 68.043 118.154 L 55.927 101.936 L 46.721 94.045 L 61.904 86.002 L 70.947 77.676 L 67.881 101.936 L 68.043 118.154 Z " fill="rgb(255,48,54)"/><path d=" M 204.907 100.097 L 217.024 74.579 L 226.23 62.161 L 211.047 49.505 L 202.004 36.405 L 205.07 74.579 L 204.907 100.097 Z " fill="rgb(255,48,54)"/><path d=" M 231.957 118.154 L 244.073 101.936 L 253.279 94.045 L 238.096 86.002 L 229.053 77.676 L 232.119 101.936 L 231.957 118.154 Z " fill="rgb(255,48,54)"/></g></svg>