<?xml version="1.0" encoding="UTF-8" standalone="no"?><!-- Generator: Gravit.io --><svg xmlns="http://www.w3.org/2000/svg" xmlns:xlink="http://www.w3.org/1999/xlink" style="isolation:isolate" viewBox="0 0 300 300" width="300pt" height="300pt"><g><path d=" M 400.376 220.446 C 407.623 230.368 412.835 240.53 413.454 241.537 Q 428.722 266.352 416.712 290.387 L 411.35 283.493 C 411.41 283.318 411.48 283.142 411.54 282.974 C 412.18 281.177 412.7 279.366 413.09 277.534 C 413.48 275.751 413.74 273.954 413.88 272.15 C 414.02 270.353 414.04 268.549 413.93 266.752 C 413.83 264.92 413.59 263.095 413.24 261.284 C 412.87 259.396 412.38 257.521 411.76 255.668 C 411.11 253.71 410.33 251.773 409.42 249.863 C 408.44 247.786 407.33 245.736 406.09 243.728 C 405.82 243.265 405.56 242.802 405.31 242.338 C 403.91 239.769 402.46 237.221 400.95 234.694 C 398.67 230.869 396.2 227.099 393.54 223.393 C 392.14 221.449 390.65 219.539 389.09 217.658 C 387.64 215.91 386.08 214.212 384.4 212.562 C 383.04 211.207 381.52 209.93 379.87 208.737 C 379.25 208.294 378.58 207.873 377.89 207.487 C 377.29 207.15 376.65 206.862 375.97 206.617 C 373.97 205.634 371.77 204.876 369.48 204.377 C 367.06 203.865 364.54 203.612 362.01 203.619 L 361 203.626 L 359.99 203.619 C 357.47 203.612 354.96 203.865 352.55 204.37 C 350.23 204.876 348.03 205.634 346.03 206.617 C 345.35 206.862 344.71 207.15 344.11 207.487 C 343.42 207.873 342.75 208.294 342.13 208.737 C 340.48 209.93 338.96 211.207 337.6 212.562 C 335.92 214.212 334.36 215.91 332.91 217.658 C 331.35 219.539 329.86 221.449 328.46 223.393 C 325.8 227.099 323.33 230.862 321.05 234.694 C 319.54 237.221 318.09 239.769 316.69 242.338 C 316.44 242.802 316.18 243.265 315.91 243.728 C 314.67 245.736 313.56 247.786 312.58 249.863 C 311.67 251.773 310.89 253.71 310.24 255.668 C 309.62 257.521 309.13 259.396 308.76 261.284 C 308.41 263.095 308.17 264.92 308.07 266.752 C 307.96 268.549 307.98 270.353 308.12 272.15 C 308.26 273.954 308.52 275.751 308.91 277.534 C 309.3 279.366 309.82 281.177 310.46 282.974 C 310.52 283.142 310.59 283.318 310.65 283.493 Q 306.466 290.154 305.288 290.387 Q 293.278 266.352 308.546 241.537 C 309.165 240.53 314.377 230.368 321.624 220.446 L 321.6 217.138 L 322.633 219.084 C 325.25 215.603 328.105 212.206 331.087 209.303 L 330.593 208.298 C 330.478 208.065 330.383 207.666 330.381 207.409 L 330.329 201.213 L 333.811 206.827 C 336.452 204.602 339.162 202.84 341.869 201.811 C 342.115 201.695 342.362 201.581 342.611 201.47 L 340.925 198.195 C 340.721 197.801 340.553 197.125 340.549 196.688 L 340.46 186.396 L 347.66 197.48 L 349.39 199.186 C 350.917 198.824 352.508 198.541 354.169 198.342 L 352.979 195.241 C 352.795 194.764 352.644 193.965 352.641 193.459 L 352.55 179.511 L 359.75 194.376 L 361 196.029 L 362.25 194.376 L 369.45 179.511 L 369.359 193.459 C 369.356 193.965 369.205 194.764 369.021 195.241 L 367.831 198.342 C 369.492 198.541 371.083 198.824 372.61 199.186 L 374.34 197.48 L 381.54 186.396 L 381.451 196.688 C 381.447 197.125 381.279 197.801 381.075 198.195 L 379.389 201.47 C 379.638 201.581 379.885 201.695 380.131 201.811 C 382.838 202.84 385.548 204.602 388.189 206.827 L 391.671 201.213 L 391.619 207.409 C 391.617 207.666 391.522 208.065 391.407 208.298 L 390.913 209.303 C 393.895 212.206 396.75 215.603 399.367 219.084 L 400.4 217.138 L 400.376 220.446 Z " fill="rgb(255,48,54)"/><g><path d=" M 318.647 238.837 L 314.386 229.863 L 311.148 225.495 L 316.488 221.044 L 319.668 216.437 L 318.59 229.863 L 318.647 238.837 Z " fill="rgb(255,48,54)"/><path d=" M 403.353 238.837 L 407.614 229.863 L 410.852 225.495 L 405.512 221.044 L 402.332 216.437 L 403.41 229.863 L 403.353 238.837 Z " fill="rgb(255,48,54)"/><polygon points="361.000001,191.561569,356.138786,171.168372,365.861217,171.168372" fill="rgb(255,48,54)"/><path d=" M 350.54 196.143 L 345.613 185.765 L 341.869 180.715 L 348.043 175.569 L 351.721 170.241 L 350.474 185.765 L 350.54 196.143 Z " fill="rgb(255,48,54)"/><path d=" M 371.46 196.143 L 376.387 185.765 L 380.131 180.715 L 373.957 175.569 L 370.279 170.241 L 371.526 185.765 L 371.46 196.143 Z " fill="rgb(255,48,54)"/><mask id="_mask_tEGZbQvrBUkxVKEvYbs8Tr32Nibu8Imx"><path d=" M 361 168.396 C 360.682 168.391 360.364 168.387 360.046 168.387 C 352.945 168.387 346.996 170.219 341.869 173.415 C 325.823 181.475 309.667 223.471 308.546 225.877 Q 293.278 258.647 305.288 290.387 Q 356.18 277.092 361 275.735 Q 365.82 277.092 416.712 290.387 Q 428.722 258.647 413.454 225.877 C 412.333 223.471 396.177 181.475 380.131 173.415 C 375.004 170.219 369.055 168.387 361.954 168.387 C 361.636 168.387 361.318 168.391 361 168.396 Z " fill="white" stroke="none"/></mask><path d=" M 361 168.396 C 360.682 168.391 360.364 168.387 360.046 168.387 C 352.945 168.387 346.996 170.219 341.869 173.415 C 325.823 181.475 309.667 223.471 308.546 225.877 Q 293.278 258.647 305.288 290.387 Q 356.18 277.092 361 275.735 Q 365.82 277.092 416.712 290.387 Q 428.722 258.647 413.454 225.877 C 412.333 223.471 396.177 181.475 380.131 173.415 C 375.004 170.219 369.055 168.387 361.954 168.387 C 361.636 168.387 361.318 168.391 361 168.396 Z " fill="none"/><path d=" M 361 168.396 C 360.682 168.391 360.364 168.387 360.046 168.387 C 352.945 168.387 346.996 170.219 341.869 173.415 C 325.823 181.475 309.667 223.471 308.546 225.877 Q 293.278 258.647 305.288 290.387 Q 356.18 277.092 361 275.735 Q 365.82 277.092 416.712 290.387 Q 428.722 258.647 413.454 225.877 C 412.333 223.471 396.177 181.475 380.131 173.415 C 375.004 170.219 369.055 168.387 361.954 168.387 C 361.636 168.387 361.318 168.391 361 168.396 Z " fill="none" mask="url(#_mask_tEGZbQvrBUkxVKEvYbs8Tr32Nibu8Imx)" vector-effect="non-scaling-stroke" stroke-width="16" stroke="rgb(255,48,54)" stroke-linejoin="miter" stroke-linecap="square" stroke-miterlimit="3"/><path d=" M 338.671 209.094 L 333.744 198.716 L 330 193.666 L 336.174 188.52 L 339.852 183.192 L 338.605 198.716 L 338.671 209.094 Z " fill="rgb(255,48,54)"/><path d=" M 327.671 216.437 L 322.744 209.842 L 319 206.632 L 325.174 203.362 L 328.852 199.976 L 327.605 209.842 L 327.671 216.437 Z " fill="rgb(255,48,54)"/><path d=" M 383.329 209.094 L 388.256 198.716 L 392 193.666 L 385.826 188.52 L 382.148 183.192 L 383.395 198.716 L 383.329 209.094 Z " fill="rgb(255,48,54)"/><path d=" M 394.329 216.437 L 399.256 209.842 L 403 206.632 L 396.826 203.362 L 393.148 199.976 L 394.395 209.842 L 394.329 216.437 Z " fill="rgb(255,48,54)"/></g></g><path d=" M 246.827 128.013 C 264.648 152.41 277.462 177.4 278.986 179.877 Q 316.53 240.897 286.997 300 L 273.811 283.047 C 273.959 282.615 274.131 282.184 274.279 281.77 C 275.852 277.351 277.131 272.898 278.09 268.393 C 279.049 264.008 279.689 259.589 280.033 255.153 C 280.377 250.735 280.426 246.299 280.156 241.88 C 279.91 237.375 279.32 232.887 278.459 228.434 C 277.549 223.79 276.344 219.182 274.82 214.625 C 273.221 209.809 271.303 205.045 269.066 200.35 C 266.656 195.241 263.926 190.201 260.877 185.264 C 260.213 184.125 259.574 182.986 258.959 181.847 C 255.516 175.529 251.951 169.263 248.238 163.05 C 242.631 153.642 236.557 144.373 230.016 135.26 C 226.574 130.478 222.91 125.783 219.074 121.158 C 215.508 116.86 211.672 112.682 207.541 108.626 C 204.197 105.295 200.459 102.153 196.402 99.219 C 194.877 98.132 193.23 97.096 191.533 96.147 C 190.057 95.318 188.484 94.61 186.812 94.006 C 181.893 91.59 176.484 89.725 170.852 88.5 C 164.902 87.24 158.705 86.619 152.484 86.636 L 150 86.653 L 147.516 86.636 C 141.32 86.619 135.148 87.24 129.221 88.483 C 123.516 89.725 118.107 91.59 113.189 94.006 C 111.516 94.61 109.943 95.318 108.467 96.147 C 106.771 97.096 105.123 98.132 103.598 99.219 C 99.541 102.153 95.803 105.295 92.459 108.626 C 88.328 112.682 84.492 116.86 80.926 121.158 C 77.09 125.783 73.426 130.478 69.984 135.26 C 63.443 144.373 57.369 153.625 51.762 163.05 C 48.049 169.263 44.484 175.529 41.041 181.847 C 40.426 182.986 39.787 184.125 39.123 185.264 C 36.074 190.201 33.344 195.241 30.934 200.35 C 28.697 205.045 26.779 209.809 25.18 214.625 C 23.656 219.182 22.451 223.79 21.541 228.434 C 20.68 232.887 20.09 237.375 19.844 241.88 C 19.574 246.299 19.623 250.735 19.967 255.153 C 20.311 259.589 20.951 264.008 21.91 268.393 C 22.869 272.898 24.148 277.351 25.721 281.77 C 25.869 282.184 26.041 282.615 26.189 283.047 Q 15.901 299.427 13.003 300 Q -16.53 240.897 21.014 179.877 C 22.538 177.4 35.352 152.41 53.173 128.013 L 53.115 119.877 L 55.655 124.663 C 62.091 116.104 69.111 107.75 76.443 100.612 L 75.228 98.141 C 74.945 97.567 74.712 96.587 74.706 95.956 L 74.579 80.719 L 83.141 94.523 C 89.635 89.051 96.3 84.72 102.957 82.188 C 103.56 81.903 104.168 81.624 104.781 81.351 L 100.634 73.298 C 100.134 72.327 99.721 70.666 99.711 69.591 L 99.491 44.282 L 117.197 71.539 L 121.451 75.735 C 125.206 74.844 129.119 74.147 133.204 73.659 L 130.275 66.033 C 129.825 64.86 129.452 62.896 129.444 61.65 L 129.221 27.353 L 146.927 63.907 L 150 67.971 L 153.073 63.907 L 170.779 27.353 L 170.556 61.65 C 170.548 62.896 170.175 64.86 169.725 66.033 L 166.796 73.659 C 170.881 74.147 174.794 74.844 178.549 75.735 L 182.803 71.539 L 200.509 44.282 L 200.289 69.591 C 200.279 70.666 199.866 72.327 199.366 73.298 L 195.219 81.351 C 195.832 81.624 196.44 81.903 197.043 82.188 C 203.7 84.72 210.365 89.051 216.859 94.523 L 225.421 80.719 L 225.294 95.956 C 225.288 96.587 225.055 97.567 224.772 98.141 L 223.557 100.612 C 230.889 107.75 237.909 116.104 244.345 124.663 L 246.885 119.877 L 246.827 128.013 Z " fill="rgb(255,48,54)"/><g><path d=" M -103.353 238.837 L -107.614 229.863 L -110.852 225.495 L -105.512 221.044 L -102.332 216.437 L -103.41 229.863 L -103.353 238.837 Z " fill="rgb(255,48,54)"/><path d=" M -18.647 238.837 L -14.386 229.863 L -11.148 225.495 L -16.488 221.044 L -19.668 216.437 L -18.59 229.863 L -18.647 238.837 Z " fill="rgb(255,48,54)"/><polygon points="-60.999996,191.561569,-65.861211,171.168372,-56.138781,171.168372" fill="rgb(255,48,54)"/><path d=" M -71.46 196.143 L -76.387 185.765 L -80.131 180.715 L -73.957 175.569 L -70.279 170.241 L -71.526 185.765 L -71.46 196.143 Z " fill="rgb(255,48,54)"/><path d=" M -50.54 196.143 L -45.613 185.765 L -41.869 180.715 L -48.043 175.569 L -51.721 170.241 L -50.474 185.765 L -50.54 196.143 Z " fill="rgb(255,48,54)"/><mask id="_mask_hmgJnWwg1GP61w0kVUWhk5oXPkZEECMk"><path d=" M -61 168.396 C -61.318 168.391 -61.636 168.387 -61.954 168.387 C -69.055 168.387 -75.004 170.219 -80.131 173.415 C -96.177 181.475 -112.333 223.471 -113.454 225.877 Q -128.722 258.647 -116.712 290.387 Q -65.82 277.092 -61 275.735 Q -56.18 277.092 -5.288 290.387 Q 6.722 258.647 -8.546 225.877 C -9.667 223.471 -25.823 181.475 -41.869 173.415 C -46.996 170.219 -52.945 168.387 -60.046 168.387 C -60.364 168.387 -60.682 168.391 -61 168.396 Z " fill="white" stroke="none"/></mask><path d=" M -61 168.396 C -61.318 168.391 -61.636 168.387 -61.954 168.387 C -69.055 168.387 -75.004 170.219 -80.131 173.415 C -96.177 181.475 -112.333 223.471 -113.454 225.877 Q -128.722 258.647 -116.712 290.387 Q -65.82 277.092 -61 275.735 Q -56.18 277.092 -5.288 290.387 Q 6.722 258.647 -8.546 225.877 C -9.667 223.471 -25.823 181.475 -41.869 173.415 C -46.996 170.219 -52.945 168.387 -60.046 168.387 C -60.364 168.387 -60.682 168.391 -61 168.396 Z " fill="none"/><path d=" M -61 168.396 C -61.318 168.391 -61.636 168.387 -61.954 168.387 C -69.055 168.387 -75.004 170.219 -80.131 173.415 C -96.177 181.475 -112.333 223.471 -113.454 225.877 Q -128.722 258.647 -116.712 290.387 Q -65.82 277.092 -61 275.735 Q -56.18 277.092 -5.288 290.387 Q 6.722 258.647 -8.546 225.877 C -9.667 223.471 -25.823 181.475 -41.869 173.415 C -46.996 170.219 -52.945 168.387 -60.046 168.387 C -60.364 168.387 -60.682 168.391 -61 168.396 Z " fill="none" mask="url(#_mask_hmgJnWwg1GP61w0kVUWhk5oXPkZEECMk)" vector-effect="non-scaling-stroke" stroke-width="16" stroke="rgb(255,48,54)" stroke-linejoin="miter" stroke-linecap="square" stroke-miterlimit="3"/><path d=" M -83.329 209.094 L -88.256 198.716 L -92 193.666 L -85.826 188.52 L -82.148 183.192 L -83.395 198.716 L -83.329 209.094 Z " fill="rgb(255,48,54)"/><path d=" M -94.329 216.437 L -99.256 209.842 L -103 206.632 L -96.826 203.362 L -93.148 199.976 L -94.395 209.842 L -94.329 216.437 Z " fill="rgb(255,48,54)"/><path d=" M -38.671 209.094 L -33.744 198.716 L -30 193.666 L -36.174 188.52 L -39.852 183.192 L -38.605 198.716 L -38.671 209.094 Z " fill="rgb(255,48,54)"/><path d=" M -27.671 216.437 L -22.744 209.842 L -19 206.632 L -25.174 203.362 L -28.852 199.976 L -27.605 209.842 L -27.671 216.437 Z " fill="rgb(255,48,54)"/></g></svg>