<?xml version="1.0" encoding="UTF-8" standalone="no"?><!-- Generator: Gravit.io --><svg xmlns="http://www.w3.org/2000/svg" xmlns:xlink="http://www.w3.org/1999/xlink" style="isolation:isolate" viewBox="0 0 200 200" width="200pt" height="200pt"><g><path d="M 15.254687 51.55 L 184.745313 51.55 C 193.164604 51.55 200 58.385054 200 66.803923 L 200 180.616077 C 200 189.034946 193.164604 195.87 184.745313 195.87 L 15.254687 195.87 C 6.835396 195.87 0 189.034946 0 180.616077 L 0 66.803923 C 0 58.385054 6.835396 51.55 15.254687 51.55 Z" style="stroke:none;fill:#CBEAFF;stroke-miterlimit:10;"/><path d="M 35.174199 24.74 L 164.825801 24.74 C 172.648754 24.74 179 31.091285 179 38.914286 L 179 168.295714 C 179 176.118715 172.648754 182.47 164.825801 182.47 L 35.174199 182.47 C 27.351246 182.47 21 176.118715 21 168.295714 L 21 38.914286 C 21 31.091285 27.351246 24.74 35.174199 24.74 Z" style="stroke:none;fill:#CBEAFF;stroke-miterlimit:10;"/><path d="M 42.03616 51.55 L 157.96384 51.55 C 165.158692 51.55 171 57.391274 171 64.586085 L 171 186.963915 C 171 194.158726 165.158692 200 157.96384 200 L 42.03616 200 C 34.841308 200 29 194.158726 29 186.963915 L 29 64.586085 C 29 57.391274 34.841308 51.55 42.03616 51.55 Z" style="stroke:none;fill:#1F6493;stroke-miterlimit:10;"/><path d="M 27.18843 0 L 46.81157 0 C 50.227057 0 53 2.772927 53 6.188395 L 53 142.261605 C 53 145.677073 50.227057 148.45 46.81157 148.45 L 27.18843 148.45 C 23.772943 148.45 21 145.677073 21 142.261605 L 21 6.188395 C 21 2.772927 23.772943 0 27.18843 0 Z" style="stroke:none;fill:#CBEAFF;stroke-miterlimit:10;"/><path d="M 153.18843 0 L 172.81157 0 C 176.227057 0 179 2.772927 179 6.188395 L 179 142.261605 C 179 145.677073 176.227057 148.45 172.81157 148.45 L 153.18843 148.45 C 149.772943 148.45 147 145.677073 147 142.261605 L 147 6.188395 C 147 2.772927 149.772943 0 153.18843 0 Z" style="stroke:none;fill:#CBEAFF;stroke-miterlimit:10;"/><path d="M 90.18843 0 L 109.81157 0 C 113.227057 0 116 2.772927 116 6.188395 L 116 142.261605 C 116 145.677073 113.227057 148.45 109.81157 148.45 L 90.18843 148.45 C 86.772943 148.45 84 145.677073 84 142.261605 L 84 6.188395 C 84 2.772927 86.772943 0 90.18843 0 Z" style="stroke:none;fill:#CBEAFF;stroke-miterlimit:10;"/><path d="M 35.378888 40.21 L 56.621112 40.21 C 60.141716 40.21 63 43.068267 63 46.588851 L 63 182.281149 C 63 185.801733 60.141716 188.66 56.621112 188.66 L 35.378888 188.66 C 31.858284 188.66 29 185.801733 29 182.281149 L 29 46.588851 C 29 43.068267 31.858284 40.21 35.378888 40.21 Z" style="stroke:none;fill:#1F6493;stroke-miterlimit:10;"/><path d="M 143.378888 40.21 L 164.621112 40.21 C 168.141716 40.21 171 43.068267 171 46.588851 L 171 182.281149 C 171 185.801733 168.141716 188.66 164.621112 188.66 L 143.378888 188.66 C 139.858284 188.66 137 185.801733 137 182.281149 L 137 46.588851 C 137 43.068267 139.858284 40.21 143.378888 40.21 Z" style="stroke:none;fill:#1F6493;stroke-miterlimit:10;"/><path d="M 89.378888 40.21 L 110.621112 40.21 C 114.141716 40.21 117 43.068267 117 46.588851 L 117 182.281149 C 117 185.801733 114.141716 188.66 110.621112 188.66 L 89.378888 188.66 C 85.858284 188.66 83 185.801733 83 182.281149 L 83 46.588851 C 83 43.068267 85.858284 40.21 89.378888 40.21 Z" style="stroke:none;fill:#1F6493;stroke-miterlimit:10;"/><path d="M 13.210946 91.75 L 186.789054 91.75 C 194.080373 91.75 200 97.669877 200 104.961506 L 200 186.788494 C 200 194.080123 194.080373 200 186.789054 200 L 13.210946 200 C 5.919627 200 0 194.080123 0 186.788494 L 0 104.961506 C 0 97.669877 5.919627 91.75 13.210946 91.75 Z" style="stroke:none;fill:#1F6493;stroke-miterlimit:10;"/><path d="M 39.984464 94.72 L 160.015536 94.72 C 166.078027 94.72 171 99.641968 171 105.704453 L 171 189.135547 C 171 195.198032 166.078027 200.12 160.015536 200.12 L 39.984464 200.12 C 33.921973 200.12 29 195.198032 29 189.135547 L 29 105.704453 C 29 99.641968 33.921973 94.72 39.984464 94.72 Z" style="stroke:none;fill:#0A4871;stroke-miterlimit:10;"/><path d="M 11.131741 123.27 L 188.868259 123.27 C 195.012034 123.27 200 128.25769 200 134.401126 L 200 188.988874 C 200 195.13231 195.012034 200.12 188.868259 200.12 L 11.131741 200.12 C 4.987966 200.12 0 195.13231 0 188.988874 L 0 134.401126 C 0 128.25769 4.987966 123.27 11.131741 123.27 Z" style="stroke:none;fill:#0A4871;stroke-miterlimit:10;"/><path d="M 60.271406 130.06 L 139.728594 130.06 C 143.741792 130.06 147 133.318119 147 137.331207 L 147 192.558793 C 147 196.571881 143.741792 199.83 139.728594 199.83 L 60.271406 199.83 C 56.258208 199.83 53 196.571881 53 192.558793 L 53 137.331207 C 53 133.318119 56.258208 130.06 60.271406 130.06 Z" style="stroke:none;fill:#003A62;stroke-miterlimit:10;"/><path d="M 41.169213 148.96 L 158.830787 148.96 C 162.897967 148.96 166.2 152.261546 166.2 156.328125 L 166.2 192.461875 C 166.2 196.528454 162.897967 199.83 158.830787 199.83 L 41.169213 199.83 C 37.102033 199.83 33.8 196.528454 33.8 192.461875 L 33.8 156.328125 C 33.8 152.261546 37.102033 148.96 41.169213 148.96 Z" style="stroke:none;fill:#003A62;stroke-miterlimit:10;"/></g></svg>